<?xml version="1.0" encoding="UTF-8" standalone="no"?>
<svg
   xmlns:dc="http://purl.org/dc/elements/1.1/"
   xmlns:cc="http://creativecommons.org/ns#"
   xmlns:rdf="http://www.w3.org/1999/02/22-rdf-syntax-ns#"
   xmlns:svg="http://www.w3.org/2000/svg"
   xmlns="http://www.w3.org/2000/svg"
   id="svg835"
   version="1.1"
   height="185"
   width="160">
  <metadata
     id="metadata841">
    <rdf:RDF>
      <cc:Work
         rdf:about="">
        <dc:format>image/svg+xml</dc:format>
        <dc:type
           rdf:resource="http://purl.org/dc/dcmitype/StillImage" />
        <dc:title></dc:title>
      </cc:Work>
    </rdf:RDF>
  </metadata>
  <defs
     id="defs839" />
  <path
     id="path833"
     d="m 88.771678,5.8502222 c 0,29.8539998 0,90.6009998 0,90.6009998 0,0 22.141002,-22.052 22.700002,-22.65 3.054,-2.19 7.06,-1.026 9.287,1.03 2.227,2.055 4.082,6.588 3.096,8.236 -2.064,1.716 -5.16,5.491 -7.223,7.207 -4.127,4.461 -8.255,8.923 -12.382,13.383998 -6.879002,6.52 -13.759002,13.042 -20.637002,19.562 -2.064,0 -4.128,0 -6.191,0 -3.096,-2.745 -6.192,-5.491 -9.287,-8.236 -6.534,-6.864 -26.976,-27.709998 -29.924,-30.886998 -2.947,-3.178 -0.516,-7.705 1.032,-9.266 1.673,-1.687 6.008,-4.391 8.255,-3.089 2.935,2.441 24.764,24.709 24.764,24.709 V 5.8502222 c 0,0 8.033,-13.163 16.51,0 z m -73.261,162.6709978 c 43.333,0 86.679002,0 130.012002,0 0,-14.413 0.432,-40.814 0,-43.242 5.68,-5.575 9.789,-5.384 15.478,0 -0.149,1.306 -0.176,49.883 0,52.508 0.305,4.549 -3.218,7.166 -7.223,7.207 -0.914,-0.146 -140.892002,0.01 -142.394002,0 -7.1599998,0.009 -9.6379998,-2.019 -11.35099978,-5.148 -0.127,-1.559 0.169,-53.703 0,-54.567 1.37599998,-0.915 2.74199998,-3.933 7.22299998,-4.118 4.4819998,-0.185 7.6219998,2.812 8.2549998,4.118 0,14.413 0,28.829 0,43.242 z"
     fill="rgb(0, 0, 0)"
     fill-rule="evenodd" />
</svg>
