<svg xmlns="http://www.w3.org/2000/svg" xmlns:xlink="http://www.w3.org/1999/xlink" width="185px" height="185px">
<path fill-rule="evenodd"  fill="rgb(220, 220, 220)" d="M283.9219 271.9688 Q262.8281 310.0781 225.1406 330.1875 Q189.1406 349.4531 144.1406 349.4531 Q99 349.4531 63.1406 330.1875 Q25.4531 310.0781 4.0781 271.9688 Q25.5938 233.7188 63 213.6094 Q98.8594 194.3438 144.1406 194.3438 Q189.2812 194.3438 225.1406 213.6094 Q262.8281 233.7188 283.9219 271.9688 ZM257.3438 271.9688 Q229.7812 223.5938 170.4375 213.75 Q188.1562 221.3438 198.7031 237.0312 Q209.25 252.7031 209.25 271.9688 Q209.25 290.8125 198.8438 306.5625 Q188.4375 322.3125 171.1406 330.0469 Q230.0625 320.0625 257.3438 271.9688 ZM195.75 271.9688 Q195.75 250.7344 180.4844 236.0469 Q165.2344 221.3438 144 221.3438 Q132.8906 221.3438 122.625 225.9844 L117.2812 213.75 Q58.0781 223.875 30.6562 271.9688 Q57.9375 319.9219 116.7188 330.0469 Q99.4219 322.3125 89.0781 306.5625 Q78.75 290.8125 78.75 271.9688 Q78.75 260.4375 82.8281 249.4688 L95.9062 253.5469 Q92.25 262.6875 92.25 271.9688 Q92.25 293.2031 107.4375 307.9062 Q122.625 322.5938 144 322.5938 Q165.375 322.5938 180.5625 307.9062 Q195.75 293.2031 195.75 271.9688 ZM183.0938 271.9688 Q183.0938 288 171.5625 299.1875 Q160.0312 310.3594 144 310.3594 Q127.8281 310.3594 116.3594 299.1875 Q104.9062 288 104.9062 271.9688 Q104.9062 264.7969 107.2969 258.4688 L147.2344 276.6094 L128.5312 236.9531 Q136.125 233.5781 144 233.5781 Q160.0312 233.5781 171.5625 244.7656 Q183.0938 255.9375 183.0938 271.9688 Z"/>
</svg>

